<svg xmlns="http://www.w3.org/2000/svg" xmlns:xlink="http://www.w3.org/1999/xlink" width="300" zoomAndPan="magnify" viewBox="0 0 224.87999 74.999997" height="100" preserveAspectRatio="xMidYMid meet" version="1.2"><defs><clipPath id="6018094c0f"><path d="M 174.304688 26.953125 L 204.683594 26.953125 L 204.683594 57.335938 L 174.304688 57.335938 Z M 174.304688 26.953125 "/></clipPath><clipPath id="84ffb92314"><path d="M 189.496094 26.953125 C 181.105469 26.953125 174.304688 33.753906 174.304688 42.144531 C 174.304688 50.535156 181.105469 57.335938 189.496094 57.335938 C 197.882812 57.335938 204.683594 50.535156 204.683594 42.144531 C 204.683594 33.753906 197.882812 26.953125 189.496094 26.953125 Z M 189.496094 26.953125 "/></clipPath></defs><g id="ebfb8f220f"><g style="fill:#000000;fill-opacity:1;"><g transform="translate(2.781516, 56.053974)"><path style="stroke:none" d="M 15.375 5.421875 L 10.59375 5.421875 C 8.519531 5.421875 6.972656 4.707031 5.953125 3.28125 C 4.941406 1.851562 4.4375 -0.0625 4.4375 -2.46875 L 4.4375 -11.140625 C 4.4375 -12.285156 4.265625 -13.160156 3.921875 -13.765625 C 3.578125 -14.378906 3.132812 -14.84375 2.59375 -15.15625 C 2.050781 -15.46875 1.46875 -15.71875 0.84375 -15.90625 L 0.84375 -21.625 C 1.46875 -21.820312 2.050781 -22.078125 2.59375 -22.390625 C 3.132812 -22.703125 3.578125 -23.171875 3.921875 -23.796875 C 4.265625 -24.421875 4.4375 -25.289062 4.4375 -26.40625 L 4.4375 -35.078125 C 4.4375 -37.472656 4.941406 -39.382812 5.953125 -40.8125 C 6.972656 -42.238281 8.519531 -42.953125 10.59375 -42.953125 L 15.375 -42.953125 L 15.375 -37.9375 L 13.40625 -37.9375 C 12.382812 -37.9375 11.75 -37.613281 11.5 -36.96875 C 11.257812 -36.332031 11.140625 -35.648438 11.140625 -34.921875 L 11.140625 -26.265625 C 11.140625 -24.054688 10.703125 -22.367188 9.828125 -21.203125 C 8.953125 -20.035156 7.796875 -19.222656 6.359375 -18.765625 C 7.796875 -18.304688 8.953125 -17.5 9.828125 -16.34375 C 10.703125 -15.195312 11.140625 -13.507812 11.140625 -11.28125 L 11.140625 -2.609375 C 11.140625 -1.890625 11.257812 -1.207031 11.5 -0.5625 C 11.75 0.0703125 12.382812 0.390625 13.40625 0.390625 L 15.375 0.390625 Z M 15.375 5.421875 "/></g></g><g style="fill:#000000;fill-opacity:1;"><g transform="translate(19.230028, 56.053974)"><path style="stroke:none" d="M 16.25 0.59375 C 13.363281 0.59375 10.8125 -0.0078125 8.59375 -1.21875 C 6.375 -2.4375 4.648438 -4.15625 3.421875 -6.375 C 2.191406 -8.59375 1.578125 -11.179688 1.578125 -14.140625 C 1.578125 -16.992188 2.191406 -19.492188 3.421875 -21.640625 C 4.648438 -23.796875 6.363281 -25.484375 8.5625 -26.703125 C 10.769531 -27.921875 13.332031 -28.53125 16.25 -28.53125 C 19.175781 -28.53125 21.738281 -27.921875 23.9375 -26.703125 C 26.144531 -25.484375 27.863281 -23.796875 29.09375 -21.640625 C 30.320312 -19.492188 30.9375 -16.992188 30.9375 -14.140625 C 30.9375 -11.179688 30.328125 -8.601562 29.109375 -6.40625 C 27.898438 -4.207031 26.191406 -2.488281 23.984375 -1.25 C 21.785156 -0.0195312 19.207031 0.59375 16.25 0.59375 Z M 16.25 -6.5 C 18.125 -6.5 19.601562 -7.195312 20.6875 -8.59375 C 21.769531 -9.988281 22.3125 -11.835938 22.3125 -14.140625 C 22.3125 -16.304688 21.769531 -18.070312 20.6875 -19.4375 C 19.601562 -20.800781 18.125 -21.484375 16.25 -21.484375 C 14.414062 -21.484375 12.929688 -20.804688 11.796875 -19.453125 C 10.660156 -18.109375 10.09375 -16.335938 10.09375 -14.140625 C 10.09375 -11.804688 10.660156 -9.945312 11.796875 -8.5625 C 12.929688 -7.1875 14.414062 -6.5 16.25 -6.5 Z M 16.25 -6.5 "/></g></g><g style="fill:#000000;fill-opacity:1;"><g transform="translate(51.733082, 56.053974)"><path style="stroke:none" d="M 17.9375 0 L 11.328125 0 C 9.296875 0 7.710938 -0.484375 6.578125 -1.453125 C 5.441406 -2.421875 4.875 -3.789062 4.875 -5.5625 L 4.875 -21.484375 L 1.03125 -21.484375 L 1.03125 -27.9375 L 4.875 -27.9375 L 4.875 -37.59375 L 13.15625 -37.59375 L 13.15625 -27.9375 L 17.984375 -27.9375 L 17.984375 -21.484375 L 13.15625 -21.484375 L 13.15625 -8.375 C 13.15625 -7.976562 13.253906 -7.597656 13.453125 -7.234375 C 13.648438 -6.878906 14.109375 -6.703125 14.828125 -6.703125 L 17.9375 -6.703125 Z M 17.9375 0 "/></g></g><g style="fill:#000000;fill-opacity:1;"><g transform="translate(71.333406, 56.053974)"><path style="stroke:none" d="M 10.984375 0 L 2.703125 0 L 2.703125 -37.59375 L 10.984375 -37.59375 L 10.984375 -24.921875 C 11.941406 -26.335938 13 -27.289062 14.15625 -27.78125 C 15.320312 -28.28125 16.644531 -28.53125 18.125 -28.53125 C 19.96875 -28.53125 21.488281 -28.304688 22.6875 -27.859375 C 23.882812 -27.410156 24.835938 -26.816406 25.546875 -26.078125 C 26.253906 -25.347656 26.785156 -24.554688 27.140625 -23.703125 C 27.703125 -22.484375 28.023438 -21.265625 28.109375 -20.046875 C 28.191406 -18.835938 28.234375 -17.363281 28.234375 -15.625 L 28.234375 0 L 19.953125 0 L 19.953125 -15.71875 C 19.953125 -17.09375 19.859375 -18.179688 19.671875 -18.984375 C 19.492188 -19.796875 19.191406 -20.414062 18.765625 -20.84375 C 18.109375 -21.53125 17.09375 -21.875 15.71875 -21.875 C 14.863281 -21.875 14.125 -21.765625 13.5 -21.546875 C 12.875 -21.335938 12.378906 -20.96875 12.015625 -20.4375 C 11.691406 -19.976562 11.4375 -19.378906 11.25 -18.640625 C 11.070312 -17.898438 10.984375 -16.925781 10.984375 -15.71875 Z M 10.984375 0 "/></g></g><g style="fill:#000000;fill-opacity:1;"><g transform="translate(102.063569, 56.053974)"><path style="stroke:none" d="M 10.796875 0.59375 C 9.117188 0.59375 7.585938 0.28125 6.203125 -0.34375 C 4.828125 -0.96875 3.71875 -1.90625 2.875 -3.15625 C 2.039062 -4.40625 1.625 -5.960938 1.625 -7.828125 C 1.625 -9.503906 1.953125 -10.882812 2.609375 -11.96875 C 3.265625 -13.050781 4.101562 -13.921875 5.125 -14.578125 C 6.113281 -15.234375 7.195312 -15.71875 8.375 -16.03125 C 9.5625 -16.34375 10.675781 -16.597656 11.71875 -16.796875 L 18.96875 -18.078125 C 18.863281 -19.492188 18.484375 -20.578125 17.828125 -21.328125 C 17.203125 -21.984375 16.269531 -22.3125 15.03125 -22.3125 C 14.070312 -22.3125 13.191406 -21.988281 12.390625 -21.34375 C 11.585938 -20.707031 11.085938 -19.800781 10.890625 -18.625 L 2.65625 -18.625 C 3.019531 -20.957031 3.828125 -22.851562 5.078125 -24.3125 C 6.328125 -25.769531 7.835938 -26.835938 9.609375 -27.515625 C 11.378906 -28.191406 13.203125 -28.53125 15.078125 -28.53125 C 16.710938 -28.53125 18.285156 -28.304688 19.796875 -27.859375 C 21.316406 -27.410156 22.632812 -26.710938 23.75 -25.765625 C 24.894531 -24.773438 25.707031 -23.640625 26.1875 -22.359375 C 26.664062 -21.078125 26.953125 -19.671875 27.046875 -18.140625 C 27.140625 -16.617188 27.1875 -14.988281 27.1875 -13.25 L 27.1875 0 L 18.921875 0 L 18.921875 -3.40625 C 18.460938 -2.320312 17.804688 -1.484375 16.953125 -0.890625 C 16.128906 -0.328125 15.179688 0.0546875 14.109375 0.265625 C 13.046875 0.484375 11.941406 0.59375 10.796875 0.59375 Z M 13.203125 -5.671875 C 14.191406 -5.671875 15.191406 -5.898438 16.203125 -6.359375 C 17.359375 -6.878906 18.125 -7.609375 18.5 -8.546875 C 18.875 -9.484375 19.078125 -10.707031 19.109375 -12.21875 L 14.046875 -11.234375 C 13.117188 -11.066406 12.410156 -10.882812 11.921875 -10.6875 C 11.429688 -10.488281 11.003906 -10.226562 10.640625 -9.90625 C 10.410156 -9.675781 10.226562 -9.421875 10.09375 -9.140625 C 9.96875 -8.859375 9.90625 -8.519531 9.90625 -8.125 C 9.90625 -7.238281 10.234375 -6.609375 10.890625 -6.234375 C 11.546875 -5.859375 12.316406 -5.671875 13.203125 -5.671875 Z M 13.203125 -5.671875 "/></g></g><g style="fill:#000000;fill-opacity:1;"><g transform="translate(131.661045, 56.053974)"><path style="stroke:none" d="M 17.140625 0 L 10.59375 0 L 0.296875 -27.9375 L 9.0625 -27.9375 L 13.796875 -12.265625 L 18.71875 -27.9375 L 27.484375 -27.9375 Z M 17.140625 0 "/></g></g><g style="fill:#000000;fill-opacity:1;"><g transform="translate(159.436382, 56.053974)"><path style="stroke:none" d="M 6.84375 -29.859375 C 5.5625 -29.859375 4.460938 -30.234375 3.546875 -30.984375 C 2.628906 -31.742188 2.171875 -32.78125 2.171875 -34.09375 C 2.171875 -35.40625 2.628906 -36.445312 3.546875 -37.21875 C 4.460938 -37.988281 5.5625 -38.375 6.84375 -38.375 C 8.125 -38.375 9.222656 -37.988281 10.140625 -37.21875 C 11.066406 -36.445312 11.53125 -35.40625 11.53125 -34.09375 C 11.53125 -32.78125 11.066406 -31.742188 10.140625 -30.984375 C 9.222656 -30.234375 8.125 -29.859375 6.84375 -29.859375 Z M 10.984375 0 L 2.703125 0 L 2.703125 -27.9375 L 10.984375 -27.9375 Z M 10.984375 0 "/></g></g><g style="fill:#000000;fill-opacity:1;"><g transform="translate(173.127065, 56.053974)"><path style="stroke:none" d="M 16.25 0.59375 C 13.363281 0.59375 10.8125 -0.0078125 8.59375 -1.21875 C 6.375 -2.4375 4.648438 -4.15625 3.421875 -6.375 C 2.191406 -8.59375 1.578125 -11.179688 1.578125 -14.140625 C 1.578125 -16.992188 2.191406 -19.492188 3.421875 -21.640625 C 4.648438 -23.796875 6.363281 -25.484375 8.5625 -26.703125 C 10.769531 -27.921875 13.332031 -28.53125 16.25 -28.53125 C 19.175781 -28.53125 21.738281 -27.921875 23.9375 -26.703125 C 26.144531 -25.484375 27.863281 -23.796875 29.09375 -21.640625 C 30.320312 -19.492188 30.9375 -16.992188 30.9375 -14.140625 C 30.9375 -11.179688 30.328125 -8.601562 29.109375 -6.40625 C 27.898438 -4.207031 26.191406 -2.488281 23.984375 -1.25 C 21.785156 -0.0195312 19.207031 0.59375 16.25 0.59375 Z M 16.25 -6.5 C 18.125 -6.5 19.601562 -7.195312 20.6875 -8.59375 C 21.769531 -9.988281 22.3125 -11.835938 22.3125 -14.140625 C 22.3125 -16.304688 21.769531 -18.070312 20.6875 -19.4375 C 19.601562 -20.800781 18.125 -21.484375 16.25 -21.484375 C 14.414062 -21.484375 12.929688 -20.804688 11.796875 -19.453125 C 10.660156 -18.109375 10.09375 -16.335938 10.09375 -14.140625 C 10.09375 -11.804688 10.660156 -9.945312 11.796875 -8.5625 C 12.929688 -7.1875 14.414062 -6.5 16.25 -6.5 Z M 16.25 -6.5 "/></g></g><g style="fill:#000000;fill-opacity:1;"><g transform="translate(205.630119, 56.053974)"><path style="stroke:none" d="M 5.859375 5.421875 L 1.078125 5.421875 L 1.078125 0.390625 L 3.046875 0.390625 C 4.066406 0.390625 4.703125 0.0703125 4.953125 -0.5625 C 5.203125 -1.207031 5.328125 -1.890625 5.328125 -2.609375 L 5.328125 -11.28125 C 5.328125 -13.507812 5.769531 -15.195312 6.65625 -16.34375 C 7.539062 -17.5 8.6875 -18.304688 10.09375 -18.765625 C 8.6875 -19.222656 7.539062 -20.035156 6.65625 -21.203125 C 5.769531 -22.367188 5.328125 -24.054688 5.328125 -26.265625 L 5.328125 -34.921875 C 5.328125 -35.648438 5.203125 -36.332031 4.953125 -36.96875 C 4.703125 -37.613281 4.066406 -37.9375 3.046875 -37.9375 L 1.078125 -37.9375 L 1.078125 -42.953125 L 5.859375 -42.953125 C 7.929688 -42.953125 9.472656 -42.238281 10.484375 -40.8125 C 11.503906 -39.382812 12.015625 -37.472656 12.015625 -35.078125 L 12.015625 -26.40625 C 12.015625 -25.289062 12.1875 -24.421875 12.53125 -23.796875 C 12.882812 -23.171875 13.335938 -22.703125 13.890625 -22.390625 C 14.453125 -22.078125 15.03125 -21.820312 15.625 -21.625 L 15.625 -15.90625 C 15.03125 -15.71875 14.453125 -15.46875 13.890625 -15.15625 C 13.335938 -14.84375 12.882812 -14.378906 12.53125 -13.765625 C 12.1875 -13.160156 12.015625 -12.285156 12.015625 -11.140625 L 12.015625 -2.46875 C 12.015625 -0.0625 11.503906 1.851562 10.484375 3.28125 C 9.472656 4.707031 7.929688 5.421875 5.859375 5.421875 Z M 5.859375 5.421875 "/></g></g><g clip-rule="nonzero" clip-path="url(#6018094c0f)"><g clip-rule="nonzero" clip-path="url(#84ffb92314)"><path style=" stroke:none;fill-rule:nonzero;fill:#ad3757;fill-opacity:1;" d="M 174.304688 26.953125 L 204.683594 26.953125 L 204.683594 57.335938 L 174.304688 57.335938 Z M 174.304688 26.953125 "/></g></g></g></svg>